<?xml version="1.0" encoding="UTF-8" standalone="no"?>
<svg
   xmlns:dc="http://purl.org/dc/elements/1.1/"
   xmlns:cc="http://creativecommons.org/ns#"
   xmlns:rdf="http://www.w3.org/1999/02/22-rdf-syntax-ns#"
   xmlns:svg="http://www.w3.org/2000/svg"
   xmlns="http://www.w3.org/2000/svg"
   height="1800"
   width="3800"
   version="1.1"
   id="svg3023">
  <metadata
     id="metadata3029">
    <rdf:RDF>
      <cc:Work
         rdf:about="">
        <dc:format>image/svg+xml</dc:format>
        <dc:type
           rdf:resource="http://purl.org/dc/dcmitype/StillImage" />
        <dc:title></dc:title>
      </cc:Work>
    </rdf:RDF>
  </metadata>
  <defs
     id="defs3027" />
  <g
     transform="translate(2101.8998,1363.5408)"
     id="g3152">
    <path
       style="fill:#000000"
       d=""
       id="path3022" />
    <g
       style="fill:#f9f9f9"
       transform="matrix(2.113976,0,0,1.8946174,1554.2654,-627.46077)"
       id="g3180">
      <g
         style="fill:#f9f9f9"
         transform="translate(-493.78137,-3770.5535)"
         id="g3024">
        <path
           id="path3062"
           d="m -774.36742,3644.62 c -11.1249,-2.8519 -19.2745,-8.7567 -22.4252,-16.2484 -3.4153,-8.1211 -0.5192,-14.6825 6.4806,-14.6825 4.6599,0 7.0773,2.2043 9.0144,8.2202 1.6988,5.2754 5.0754,10.7573 8.6592,14.058 4.9136,4.5255 16.6804,6.9699 32.2928,6.7086 7.6912,-0.1288 10.7811,0.7388 9.5691,2.6865 -1.1634,1.8698 -35.6956,1.2816 -43.5909,-0.7424 z m 62.201,0.1815 c 0.3081,-1.5755 1.4581,-1.8208 8.8375,-1.8849 18.5557,-0.1613 30.2167,-2.8533 35.1889,-8.1236 2.8081,-2.9764 6.1515,-9.1864 7.1308,-13.2447 1.1707,-4.8517 4.4471,-7.8592 8.5619,-7.8592 7.2477,0 10.3463,7.4172 6.4797,15.5107 -2.6674,5.5832 -10.5496,11.8367 -18.135,14.3878 -5.9697,2.0077 -9.1327,2.3112 -27.5805,2.6463 -19.7381,0.3586 -20.8187,0.283 -20.4833,-1.4324 z m -64.1792,-37.5511 c -10.3617,-2.3901 -15.2294,-4.8118 -20.9988,-10.4468 -8.5097,-8.3114 -10.4102,-16.833 -4.8954,-21.9499 6.4191,-5.956 12.7935,-2.756 16.457,8.2617 5.4141,16.2823 13.2716,20.4472 39.913,21.1556 7.7133,0.205 14.3617,0.3967 14.7742,0.4258 0.4125,0.029 0.75,0.9468 0.75,2.0394 0,1.9245 -0.6325,1.9834 -20.25,1.8848 -12.5249,-0.063 -22.3482,-0.5858 -25.75,-1.3706 z m 63.3451,-0.06 c -0.3257,-0.843 -0.3334,-1.7898 -0.017,-2.104 0.3163,-0.3142 7.2344,-0.6988 15.3735,-0.8548 27.1669,-0.5204 35.9183,-5.045 41.053,-21.2246 3.3157,-10.4475 10.4248,-13.989 16.3223,-8.1313 5.0195,4.9857 3.414,13.7865 -3.8757,21.2458 -9.7426,9.9693 -19.4688,12.5165 -47.9826,12.5662 -17.3792,0.031 -20.3661,-0.1838 -20.8735,-1.4973 z m -57.3451,-37.6484 c -15.9792,-2.9855 -25.9463,-10.7957 -27.4426,-21.5038 -0.8208,-5.8741 0.9484,-9.0821 5.6492,-10.2437 4.0211,-0.9935 8.4032,0.9517 9.4378,4.1896 0.2953,0.9242 0.9179,2.5743 1.3834,3.6669 0.4656,1.0925 1.1156,2.9468 1.4445,4.1205 0.8579,3.0614 6.0637,9.934 8.9453,11.8093 4.2898,2.792 12.6959,4.3906 25.9638,4.938 7.0848,0.2922 13.2941,0.7848 13.7986,1.0944 0.5259,0.3229 0.4176,1.1608 -0.2539,1.9645 -1.5012,1.7967 -29.2551,1.7712 -38.9261,-0.036 z m 59.6929,0.7416 c -0.9939,-0.2559 -1.6689,-1.1327 -1.5,-1.9485 0.2493,-1.2042 2.825,-1.5512 13.6871,-1.8441 21.4021,-0.5771 28.651,-3.2737 33.8525,-12.5931 1.6169,-2.8969 3.5377,-7.1731 4.2684,-9.5027 1.5764,-5.0252 2.7157,-6.1118 7.1602,-6.8281 8.476,-1.3662 11.8406,8.4613 6.0166,17.5737 -7.3636,11.5212 -20.6037,15.9338 -47.1777,15.7229 -7.975,-0.064 -15.3132,-0.3243 -16.3071,-0.5801 z m -51.1929,-36.1461 c -11.2958,-1.585 -16.5481,-3.8004 -22.1119,-9.3267 -3.9697,-3.943 -5.3134,-6.0754 -5.8625,-9.3041 -1.9118,-11.2393 10.5751,-13.9442 14.4411,-3.1283 4.9049,13.7225 9.1965,16.5707 28.4598,18.8888 4.9095,0.5908 9.405,1.3679 9.9899,1.727 3.1564,1.9376 -13.7329,2.7126 -24.9164,1.1433 z m 58,0.1278 c -2.8515,-1.1647 -0.9916,-1.7282 11.2226,-3.4003 13.5868,-1.8598 18.356,-4.2023 22.1205,-10.8643 1.5977,-2.8275 3.198,-6.3814 3.5563,-7.8976 1.0781,-4.5623 4.2612,-6.994 8.3024,-6.3426 4.9923,0.8048 6.2982,2.2814 6.2982,7.1221 0,6.5394 -4.8964,13.0934 -12.6458,16.927 -8.83,4.3681 -32.4395,7.0755 -38.8542,4.4557 z"
           style="fill:#f9f9f9;fill-opacity:1;stroke:none" />
      </g>
      <g
         transform="translate(-5131.908,-2324.0814)"
         id="g3091"
         style="fill:#f9f9f9;fill-opacity:1">
        <path
           id="path3043"
           d="m 3746.3787,2058.9261 c 0,0 0.424,208.1174 0.1269,272.1692 -0.5073,109.3448 91.6039,164.8464 179.2888,161.8634 41.3271,-1.9225 83.7763,-9.5525 128.3242,-64.968 44.5478,-55.4155 34.1838,-122.8028 34.1838,-249.323 0,0 -16.3244,30.0845 -23.4645,46.2293 -7.14,16.1448 -19.0163,52.2267 -19.5296,84.3843 0,94.1931 -61.8354,138.2704 -125.1496,139.5672 -60.1452,1.2319 -131.5468,-35.137 -131.5468,-116.7016 0,-58.378 0,-272.9671 0,-272.9671 z"
           style="fill:#f9f9f9;fill-opacity:1;stroke:none" />
        <path
           id="path3045"
           d="m 4045.3083,2059.1798 0,133.1676 c 0,0 10.1777,-21.5167 22.1664,-38.0519 11.9887,-16.5352 20.8277,-26.3759 20.8277,-26.3759 l 0,-68.7398 z"
           style="fill:#f9f9f9;fill-opacity:1;stroke:none" />
        <path
           id="path3047"
           d="m 4142.2701,2059.1798 0,25.9903 c 0,0 7.7144,-7.0832 19.3759,-14.1811 11.6616,-7.0979 23.6664,-11.8092 23.6664,-11.8092 z"
           style="fill:#f9f9f9;fill-opacity:1;stroke:none" />
        <path
           id="path3049"
           d="m 4142.3037,2190.7803 0,-61.7919 c 71.6914,-86.086 285.9658,-119.6556 398.2636,54.5253 l -27.2626,38.7416 c -55.1101,-117.841 -250.5848,-183.3511 -371.001,-31.475 z"
           style="fill:#f9f9f9;fill-opacity:1;stroke:none" />
        <path
           id="path3051"
           d="m 3650.6249,2059.1798 c 0,108.2191 0,221.8859 0.6694,302.2806 11.8483,124.9091 113.9016,230.6267 272.093,230.6267 158.1914,0 248.3211,-135.6871 256.9856,-240.4599 -2.4867,-100.1682 62.0745,-156.643 129.6762,-156.643 67.6016,0 128.8755,64.8897 128.8755,123.9292 0,76.241 0,272.9367 0,272.9367 l 42.7846,0 0,-272.6159 c 0,-191.4434 -290.6271,-243.1423 -339.4414,-28.8996 -8.1253,44.2094 -1.0256,92.1552 -35.6677,148.8962 -138.4465,210.0409 -414.8114,80.0074 -414.2029,-101.3497 l 0.9352,-278.7013 z"
           style="fill:#f9f9f9;fill-opacity:1;stroke:none" />
        <path
           id="path3053"
           d="m 4045.4033,2592.1038 42.8673,-0.2537 0.2537,-31.1992 c 0,0 -7.9749,7.5872 -20.7973,15.3759 -12.8223,7.7886 -22.3237,11.5112 -22.3237,11.5112 z"
           style="fill:#f9f9f9;fill-opacity:1;stroke:none" />
        <path
           id="path3055"
           d="m 4142.2701,2591.8501 43.0423,0 0,-143.4475 c -8.7647,27.397 -24.024,49.0888 -43.0423,68.8444 z"
           style="fill:#f9f9f9;fill-opacity:1;stroke:none" />
        <path
           id="path3075"
           d="m 4577.6128,2591.8501 0,-290.5297 c -0.024,-26.2981 -5.6294,-49.4729 -16.5081,-71.6282 -15.476,23.9026 -24.1112,44.3019 -26.2179,71.6282 l 0,290.5297 z"
           style="fill:#f9f9f9;fill-opacity:1;stroke:none" />
        <path
           id="path3079"
           d="m 4584.0906,2205.3199 c 6.504,15.451 11.179,31.3731 15.3826,47.6015 82.6365,-109.5861 221.3599,-46.3112 235.4055,60.0397 2.6851,62.5056 0,278.889 0,278.889 l 42.7535,0 c 0,0 1.6675,-206.8717 0,-275.0719 -6.2681,-151.7914 -191.3558,-221.1332 -293.5416,-111.4583 z"
           style="fill:#f9f9f9;fill-opacity:1;stroke:none" />
        <path
           id="path3087"
           d="m 4534.5782,2128.0563 c 10.8281,10.0904 20.9158,22.3659 28.3611,33.5693 178.2364,-143.8596 368.8864,12.4013 368.8864,147.4637 l -0.054,282.7553 42.6335,0 0.1032,-289.662 c 0.071,-198.3144 -261.1363,-331.1763 -439.9303,-174.1263 z"
           style="fill:#f9f9f9;fill-opacity:1;stroke:none" />
      </g>
      <rect
         style="fill:#f9f9f9;fill-opacity:1;fill-rule:nonzero;stroke:none"
         id="rect3178"
         width="9.4392157"
         height="287.10001"
         x="-1219.7373"
         y="-265.22485" />
    </g>
    <text
       transform="scale(1.0563048,0.94669641)"
       id="text3025"
       y="210.73555"
       x="-1878.041"
       style="font-style:normal;font-variant:normal;font-weight:bold;font-stretch:normal;font-size:157.38162231px;line-height:150%;font-family:Sans;-inkscape-font-specification:'Sans Bold';text-align:start;letter-spacing:0px;word-spacing:0px;writing-mode:lr-tb;text-anchor:start;fill:#f9f9f9;fill-opacity:1;stroke:none"
       xml:space="preserve"><tspan
         y="210.73555"
         x="-1878.041"
         id="tspan3027">UNIVERSIDAD NACIONAL DE MISIONES</tspan></text>
  </g>
</svg>
